<?xml version="1.0" encoding="UTF-8" standalone="no"?>
<svg
   xmlns:dc="http://purl.org/dc/elements/1.1/"
   xmlns:cc="http://creativecommons.org/ns#"
   xmlns:rdf="http://www.w3.org/1999/02/22-rdf-syntax-ns#"
   xmlns:svg="http://www.w3.org/2000/svg"
   xmlns="http://www.w3.org/2000/svg"
   xmlns:sodipodi="http://sodipodi.sourceforge.net/DTD/sodipodi-0.dtd"
   xmlns:inkscape="http://www.inkscape.org/namespaces/inkscape"
   width="306mm"
   height="243mm"
   viewBox="0 0 306 243"
   version="1.1"
   preserveAspectRatio="xMidYMid meet"
   id="svg15"
   sodipodi:docname="box.svg"
   inkscape:version="1.0.2 (e86c870879, 2021-01-15)">
  <metadata
     id="metadata21">
    <rdf:RDF>
      <cc:Work
         rdf:about="">
        <dc:format>image/svg+xml</dc:format>
        <dc:type
           rdf:resource="http://purl.org/dc/dcmitype/StillImage" />
        <dc:title />
      </cc:Work>
    </rdf:RDF>
  </metadata>
  <defs
     id="defs19">
    <inkscape:perspective
       sodipodi:type="inkscape:persp3d"
       inkscape:vp_x="0 : 121.5 : 1"
       inkscape:vp_y="0 : 1000 : 0"
       inkscape:vp_z="306 : 121.5 : 1"
       inkscape:persp3d-origin="153 : 81 : 1"
       id="perspective871" />
  </defs>
  <sodipodi:namedview
     pagecolor="#ffffff"
     bordercolor="#666666"
     borderopacity="1"
     objecttolerance="10"
     gridtolerance="10"
     guidetolerance="10"
     inkscape:pageopacity="0"
     inkscape:pageshadow="2"
     inkscape:window-width="1920"
     inkscape:window-height="1136"
     id="namedview17"
     showgrid="false"
     inkscape:snap-bbox="true"
     inkscape:snap-bbox-midpoints="false"
     inkscape:zoom="1.131771"
     inkscape:cx="724.49048"
     inkscape:cy="116.15968"
     inkscape:window-x="0"
     inkscape:window-y="27"
     inkscape:window-maximized="1"
     inkscape:current-layer="svgGroup"
     inkscape:document-rotation="0"
     inkscape:bbox-nodes="false"
     inkscape:snap-bbox-edge-midpoints="true"
     inkscape:bbox-paths="false" />
  <g
     id="svgGroup"
     stroke-linecap="round"
     fill-rule="evenodd"
     font-size="9pt"
     stroke="#000"
     stroke-width="0.25mm"
     fill="none"
     style="stroke:#000;stroke-width:0.94482711;fill:none;stroke-miterlimit:4;stroke-dasharray:none">
    <path
       d="M 0 153 L 0 184.138 L 3 184.138 L 3 211.862 L 0 211.862 L 0 239.586 L 0 243 L 31.138 243 L 31.138 240 L 58.862 240 L 58.862 243 L 86.586 243 L 90 243 L 90 211.862 L 87 211.862 L 87 184.138 L 90 184.138 L 90 156.414 L 90 153 L 58.862 153 L 58.862 156 L 31.138 156 L 31.138 153 L 3.414 153 L 0 153 Z"
       id="front_outsideCutPath"
       stroke="#FF0000"
       stroke-width="0.1"
       style="stroke:#FF0000;stroke-width:0.94482711;stroke-miterlimit:4;stroke-dasharray:none"
       vector-effect="non-scaling-stroke" />
    <path
       d="M 96 153 L 96 184.138 L 93 184.138 L 93 211.862 L 96 211.862 L 96 239.586 L 96 243 L 111.414 243 L 111.414 240 L 139.138 240 L 139.138 243 L 166.862 243 L 166.862 240 L 194.586 240 L 194.586 243 L 210 243 L 210 211.862 L 213 211.862 L 213 184.138 L 210 184.138 L 210 156.414 L 210 153 L 194.586 153 L 194.586 156 L 166.862 156 L 166.862 153 L 139.138 153 L 139.138 156 L 111.414 156 L 111.414 153 L 96 153 Z"
       id="left_outsideCutPath"
       stroke="#FF0000"
       stroke-width="0.1"
       style="stroke:#FF0000;stroke-width:0.94482711;stroke-miterlimit:4;stroke-dasharray:none"
       vector-effect="non-scaling-stroke" />
    <path
       d="M 219 126 L 219 141.414 L 216 141.414 L 216 169.138 L 219 169.138 L 219 196.862 L 216 196.862 L 216 224.586 L 219 224.586 L 219 240 L 247.138 240 L 247.138 243 L 274.862 243 L 274.862 240 L 302.586 240 L 303 240 L 303 224.586 L 306 224.586 L 306 196.862 L 303 196.862 L 303 169.138 L 306 169.138 L 306 141.414 L 303 141.414 L 303 126 L 274.862 126 L 274.862 123 L 247.138 123 L 247.138 126 L 219.414 126 L 219 126 Z"
       id="top_outsideCutPath"
       stroke="#FF0000"
       stroke-width="0.1"
       style="stroke:#FF0000;stroke-width:0.94482711;stroke-miterlimit:4;stroke-dasharray:none"
       vector-effect="non-scaling-stroke" />
    <path
       d="M 0 60 L 0 91.138 L 3 91.138 L 3 118.862 L 0 118.862 L 0 146.586 L 0 150 L 31.138 150 L 31.138 147 L 58.862 147 L 58.862 150 L 86.586 150 L 90 150 L 90 118.862 L 87 118.862 L 87 91.138 L 90 91.138 L 90 63.414 L 90 60 L 58.862 60 L 58.862 63 L 31.138 63 L 31.138 60 L 3.414 60 L 0 60 Z"
       id="back_outsideCutPath"
       stroke="#FF0000"
       stroke-width="0.1"
       style="stroke:#FF0000;stroke-width:0.94482711;stroke-miterlimit:4;stroke-dasharray:none"
       vector-effect="non-scaling-stroke" />
    <path
       d="M 96 60 L 96 91.138 L 93 91.138 L 93 118.862 L 96 118.862 L 96 146.586 L 96 150 L 111.414 150 L 111.414 147 L 139.138 147 L 139.138 150 L 166.862 150 L 166.862 147 L 194.586 147 L 194.586 150 L 210 150 L 210 118.862 L 213 118.862 L 213 91.138 L 210 91.138 L 210 63.414 L 210 60 L 194.586 60 L 194.586 63 L 166.862 63 L 166.862 60 L 139.138 60 L 139.138 63 L 111.414 63 L 111.414 60 L 96 60 Z"
       id="right_outsideCutPath"
       stroke="#FF0000"
       stroke-width="0.1"
       style="stroke:#FF0000;stroke-width:0.94482711;stroke-miterlimit:4;stroke-dasharray:none"
       vector-effect="non-scaling-stroke" />
    <path
       d="M 219 3 L 219 18.414 L 216 18.414 L 216 46.138 L 219 46.138 L 219 73.862 L 216 73.862 L 216 101.586 L 219 101.586 L 219 117 L 247.138 117 L 247.138 120 L 274.862 120 L 274.862 117 L 302.586 117 L 303 117 L 303 101.586 L 306 101.586 L 306 73.862 L 303 73.862 L 303 46.138 L 306 46.138 L 306 18.414 L 303 18.414 L 303 3 L 274.862 3 L 274.862 0 L 247.138 0 L 247.138 3 L 219.414 3 L 219 3 Z"
       id="bottom_outsideCutPath"
       stroke="#FF0000"
       stroke-width="0.1"
       style="stroke:#FF0000;stroke-width:0.94482711;stroke-miterlimit:4;stroke-dasharray:none"
       vector-effect="non-scaling-stroke" />
    <rect
       style="fill:none;stroke:#000000;stroke-width:0.261645;stroke-linecap:square;stroke-miterlimit:4;stroke-dasharray:none;paint-order:fill markers stroke"
       id="rect889"
       width="12.61799"
       height="5"
       x="290.38202"
       y="9.4452505" />
    <rect
       style="fill:none;stroke:#000000;stroke-width:0.662336;stroke-linecap:square;stroke-miterlimit:4;stroke-dasharray:none;paint-order:fill markers stroke"
       id="rect891"
       width="18.121887"
       height="32.527126"
       x="277.56396"
       y="7.9907455" />
    <rect
       style="fill:none;stroke:#000000;stroke-width:0.198422;stroke-linecap:square;stroke-miterlimit:4;stroke-dasharray:none;paint-order:fill markers stroke"
       id="rect887-3"
       width="1.7663388"
       height="3.96875"
       x="60"
       y="-111.414"
       transform="rotate(90)" />
    <rect
       style="fill:none;stroke:#000000;stroke-width:0.23700001;stroke-linecap:square;stroke-miterlimit:4;stroke-dasharray:none;paint-order:fill markers stroke"
       id="rect913"
       width="5"
       height="5"
       x="102.44525"
       y="60" />
    <rect
       style="fill:none;stroke:#000000;stroke-width:0.0926103;stroke-linecap:square;stroke-miterlimit:4;stroke-dasharray:none;paint-order:fill markers stroke"
       id="rect917"
       width="2.6458335"
       height="70"
       x="259.67709"
       y="25" />
    <rect
       style="fill:none;stroke:#000000;stroke-width:0.46236;stroke-linecap:square;stroke-miterlimit:4;stroke-dasharray:none;paint-order:fill markers stroke"
       id="rect919"
       width="10"
       height="10"
       x="293"
       y="131.414" />
    <circle
       style="fill:none;stroke:#000000;stroke-width:0.155643;stroke-linecap:square;stroke-miterlimit:4;stroke-dasharray:none;paint-order:fill markers stroke"
       id="path921"
       cx="298"
       cy="136.414"
       r="2.1000001" />
    <rect
       style="fill:none;stroke:#000000;stroke-width:0.46236;stroke-linecap:square;stroke-miterlimit:4;stroke-dasharray:none;paint-order:fill markers stroke"
       id="rect919-6"
       width="10"
       height="10"
       x="219"
       y="131.414" />
    <circle
       style="fill:none;stroke:#000000;stroke-width:0.155643;stroke-linecap:square;stroke-miterlimit:4;stroke-dasharray:none;paint-order:fill markers stroke"
       id="path921-7"
       cx="224"
       cy="136.414"
       r="2.1000001" />
    <rect
       style="fill:none;stroke:#000000;stroke-width:0.46236;stroke-linecap:square;stroke-miterlimit:4;stroke-dasharray:none;paint-order:fill markers stroke"
       id="rect919-6-5"
       width="10"
       height="10"
       x="219"
       y="224.586" />
    <circle
       style="fill:none;stroke:#000000;stroke-width:0.155643;stroke-linecap:square;stroke-miterlimit:4;stroke-dasharray:none;paint-order:fill markers stroke"
       id="path921-7-3"
       cx="224"
       cy="229.586"
       r="2.1000001" />
    <rect
       style="fill:none;stroke:#000000;stroke-width:0.46236;stroke-linecap:square;stroke-miterlimit:4;stroke-dasharray:none;paint-order:fill markers stroke"
       id="rect919-6-5-5"
       width="10"
       height="10"
       x="293"
       y="224.586" />
    <circle
       style="fill:none;stroke:#000000;stroke-width:0.155643;stroke-linecap:square;stroke-miterlimit:4;stroke-dasharray:none;paint-order:fill markers stroke"
       id="path921-7-3-6"
       cx="298"
       cy="229.586"
       r="2.1000001" />
    <rect
       style="fill:none;stroke:#000000;stroke-width:0.235814;stroke-linecap:square;paint-order:fill markers stroke"
       id="rect995"
       width="13"
       height="3.1507752"
       x="216"
       y="141.414" />
    <circle
       style="fill:none;stroke:#000000;stroke-width:0.103369;stroke-linecap:square;paint-order:fill markers stroke"
       id="path864"
       cx="261"
       cy="25"
       r="2.5" />
    <circle
       style="fill:none;stroke:#000000;stroke-width:0.103369;stroke-linecap:square;stroke-miterlimit:4;stroke-dasharray:none;paint-order:fill markers stroke"
       id="path864-3"
       cx="261"
       cy="95"
       r="2.5" />
    <rect
       style="fill:none;stroke:#000000;stroke-width:0.46236;stroke-linecap:square;stroke-miterlimit:4;stroke-dasharray:none;paint-order:fill markers stroke"
       id="rect919-67"
       width="10"
       height="10"
       x="39.938"
       y="63" />
    <circle
       style="fill:none;stroke:#000000;stroke-width:0.155643;stroke-linecap:square;stroke-miterlimit:4;stroke-dasharray:none;paint-order:fill markers stroke"
       id="path921-5"
       cx="44.938"
       cy="68"
       r="2.1000001" />
    <rect
       style="fill:none;stroke:#000000;stroke-width:0.130835;stroke-linecap:square;paint-order:fill markers stroke"
       id="rect985"
       width="8.8000002"
       height="12.739776"
       x="31.138"
       y="63" />
    <rect
       style="fill:none;stroke:#000000;stroke-width:0.46236;stroke-linecap:square;stroke-miterlimit:4;stroke-dasharray:none;paint-order:fill markers stroke"
       id="rect919-67-2"
       width="10"
       height="10"
       x="39.938"
       y="156" />
    <circle
       style="fill:none;stroke:#000000;stroke-width:0.155643;stroke-linecap:square;stroke-miterlimit:4;stroke-dasharray:none;paint-order:fill markers stroke"
       id="path921-5-7"
       cx="44.938"
       cy="161"
       r="2.1000001" />
    <rect
       style="fill:none;stroke:#000000;stroke-width:0.130835;stroke-linecap:square;stroke-miterlimit:4;stroke-dasharray:none;paint-order:fill markers stroke"
       id="rect985-0"
       width="8.8000002"
       height="12.739776"
       x="31.138"
       y="156" />
  </g>
  <circle
     style="fill:none;stroke:#000000;stroke-width:0.214207;stroke-linecap:square;paint-order:fill markers stroke"
     id="path835"
     cx="261.04987"
     cy="160.14633"
     r="20.5" />
  <circle
     style="fill:none;stroke:#000000;stroke-width:0.0596501;stroke-linecap:square;paint-order:fill markers stroke"
     id="path962"
     cx="236.125"
     cy="209.25266"
     r="4.75" />
  <circle
     style="fill:none;stroke:#000000;stroke-width:0.0596501;stroke-linecap:square;paint-order:fill markers stroke"
     id="path962-3"
     cx="261"
     cy="209.25266"
     r="4.75" />
  <circle
     style="fill:none;stroke:#000000;stroke-width:0.0596501;stroke-linecap:square;paint-order:fill markers stroke"
     id="path962-6"
     cx="285.875"
     cy="209.25266"
     r="4.75" />
</svg>
